<?xml version="1.0" encoding="utf-8"?>
<!-- Generator: Adobe Illustrator 24.0.1, SVG Export Plug-In . SVG Version: 6.00 Build 0)  -->
<svg version="1.1" id="图层_1" xmlns="http://www.w3.org/2000/svg" xmlns:xlink="http://www.w3.org/1999/xlink" x="0px" y="0px"
	 viewBox="0 0 80 50" style="enable-background:new 0 0 80 50;" xml:space="preserve">
<style type="text/css">
	.st0{fill:#1F72CD;}
	.st1{fill-rule:evenodd;clip-rule:evenodd;fill:#FFFFFF;}
</style>
<path class="st0" d="M0,0h80v50c0,0,0,0,0,0H0c0,0,0,0,0,0V0z"/>
<path class="st1" d="M14.3,17L6.9,33.6h9l1.1-2.6h2.5l1.1,2.6h9.9v-2l0.9,2h5.1l0.9-2.1v2.1h20.5l2.5-2.6l2.3,2.6l10.5,0l-7.5-8.3
	l7.5-8.3H62.8l-2.4,2.5L58.1,17H35.8l-1.9,4.3l-2-4.3H23v1.9L22,17H14.3z M16.1,19.4h4.4l5,11.2V19.4h4.8l3.8,8.1l3.5-8.1h4.8v11.9
	h-2.9l0-9.3l-4.2,9.3h-2.6l-4.2-9.3v9.3h-6l-1.1-2.7h-6.1L14,31.2h-3.2L16.1,19.4z M56.8,19.4H45v11.9h11.6l3.7-3.9l3.6,3.9h3.8
	l-5.5-5.9l5.5-6h-3.6l-3.7,3.9L56.8,19.4z M18.2,21.4l-2,4.7h4L18.2,21.4z M47.9,24v-2.2v0h7.3l3.2,3.5l-3.3,3.5h-7.2v-2.4h6.4V24
	H47.9z"/>
</svg>
