<?xml version="1.0" encoding="utf-8"?>
<!-- Generator: Adobe Illustrator 24.0.1, SVG Export Plug-In . SVG Version: 6.00 Build 0)  -->
<svg version="1.1" id="图层_1" xmlns="http://www.w3.org/2000/svg" xmlns:xlink="http://www.w3.org/1999/xlink" x="0px" y="0px"
	 viewBox="0 0 80 50" style="enable-background:new 0 0 80 50;" xml:space="preserve">
<style type="text/css">
	.st0{fill:#FFFFFF;}
	.st1{fill:url(#SVGID_1_);}
	.st2{fill:url(#SVGID_2_);}
	.st3{fill:url(#SVGID_3_);}
</style>
<rect class="st0" width="80" height="50"/>
<linearGradient id="SVGID_1_" gradientUnits="userSpaceOnUse" x1="48.2767" y1="26.7715" x2="61.627" y2="26.7715" gradientTransform="matrix(1 0 0 -1 0 52)">
	<stop  offset="0" style="stop-color:#58B03A"/>
	<stop  offset="1" style="stop-color:#55B330"/>
</linearGradient>
<path class="st1" d="M51,25.9c1.2,0,2.4-0.1,3.5,0c1.2,0.2,1.5,2,0.4,2.6c-0.7,0.4-1.6,0.1-2.3,0.2H51V25.9L51,25.9z M55.2,22.7
	c0.3,0.9-0.6,1.7-1.5,1.6H51c0-0.9,0-1.8,0-2.6c1.1,0,2.2-0.1,3.2,0C54.7,21.8,55.1,22.2,55.2,22.7L55.2,22.7z M61.7,9
	c0.1,1.8,0,3.6,0,5.4c0,7.3,0,14.6,0,21.9c0,2.7-2.5,5.1-5.2,5.2c-2.7,0-5.4,0-8.2,0v-11c3,0,5.9,0,8.9,0c1.4-0.1,2.9-1,2.9-2.5
	c0.2-1.5-1.3-2.6-2.6-2.7c-0.5,0-0.5-0.2,0-0.2c1.3-0.3,2.3-1.6,1.9-3c-0.3-1.4-1.9-2-3.2-2c-2.6,0-5.3,0-7.9,0c0-2.1,0-4.1,0-6.2
	c0.2-2.7,2.7-4.9,5.4-4.8C56.4,9,59,9,61.7,9L61.7,9z"/>
<linearGradient id="SVGID_2_" gradientUnits="userSpaceOnUse" x1="18.1561" y1="26.7718" x2="31.5624" y2="26.7718" gradientTransform="matrix(1 0 0 -1 0 52)">
	<stop  offset="0" style="stop-color:#0F6EB6"/>
	<stop  offset="1" style="stop-color:#006DBA"/>
</linearGradient>
<path class="st2" d="M18.4,14.1c0.1-2.7,2.5-5.1,5.2-5.1c2.7,0,5.4,0,8.1,0c0,9.1,0,18.3,0,27.4c-0.1,2.7-2.5,5-5.2,5.1
	c-2.7,0-5.4,0-8.1,0V30.1c2.6,0.6,5.4,0.9,8.1,0.5c1.6-0.3,3.4-1,3.9-2.7c0.4-1.4,0.2-2.9,0.2-4.4V20H26c0,2.2,0,4.5,0,6.7
	c-0.1,1.4-1.5,2.3-2.8,2.2c-1.6,0-4.8-1.2-4.8-1.2C18.4,23.6,18.4,18.3,18.4,14.1L18.4,14.1z"/>
<linearGradient id="SVGID_3_" gradientUnits="userSpaceOnUse" x1="33.3887" y1="26.7717" x2="46.7476" y2="26.7717" gradientTransform="matrix(1 0 0 -1 0 52)">
	<stop  offset="0" style="stop-color:#DE0D3D"/>
	<stop  offset="1" style="stop-color:#E30138"/>
</linearGradient>
<path class="st3" d="M33.5,21.4c-0.2,0.1,0-0.8-0.1-1.2c0-2.1,0-4.3,0-6.4c0.2-2.7,2.7-4.9,5.4-4.9h7.9c0,9.1,0,18.3,0,27.4
	c-0.1,2.7-2.5,5-5.2,5.1c-2.7,0-5.4,0-8.1,0V29c1.9,1.5,4.4,1.8,6.7,1.8c1.7,0,3.5-0.3,5.2-0.7v-2.3c-1.9,0.9-4.1,1.6-6.3,1
	c-1.5-0.4-2.5-1.8-2.5-3.3c-0.2-1.6,0.8-3.2,2.3-3.7c1.9-0.6,4-0.1,5.8,0.6c0.4,0.2,0.8,0.5,0.6-0.2v-1.8c-3-0.7-6.2-1-9.3-0.2
	C35.1,20.4,34.2,20.8,33.5,21.4L33.5,21.4z"/>
</svg>
