<?xml version="1.0" encoding="utf-8"?>
<!-- Generator: Adobe Illustrator 24.0.1, SVG Export Plug-In . SVG Version: 6.00 Build 0)  -->
<svg version="1.1" id="图层_1" xmlns="http://www.w3.org/2000/svg" xmlns:xlink="http://www.w3.org/1999/xlink" x="0px" y="0px"
	 viewBox="0 0 80 50" style="enable-background:new 0 0 80 50;" xml:space="preserve">
<style type="text/css">
	.st0{fill:#FFFFFF;}
	.st1{fill-rule:evenodd;clip-rule:evenodd;fill:#253B80;}
	.st2{fill-rule:evenodd;clip-rule:evenodd;fill:#179BD7;}
	.st3{fill:#253B80;}
	.st4{fill:#179BD7;}
	.st5{fill:#222D65;}
</style>
<rect class="st0" width="80" height="50"/>
<path class="st1" d="M22.6,32.6h-3.6c-0.2,0-0.5,0.2-0.5,0.4l-1.4,9.1c0,0.2,0.1,0.3,0.3,0.3h1.7c0.2,0,0.5-0.2,0.5-0.4l0.4-2.5
	c0-0.2,0.2-0.4,0.5-0.4h1.1c2.3,0,3.7-1.1,4-3.4c0.2-1,0-1.8-0.5-2.3C24.7,32.9,23.8,32.6,22.6,32.6z M23,36
	c-0.2,1.3-1.2,1.3-2.1,1.3h-0.5l0.4-2.4c0-0.1,0.1-0.3,0.3-0.3h0.2c0.6,0,1.2,0,1.6,0.4C23.1,35.2,23.1,35.5,23,36z M33.3,35.9h-1.7
	c-0.1,0-0.3,0.1-0.3,0.3l-0.1,0.5l-0.1-0.2c-0.4-0.5-1.2-0.7-2-0.7c-1.9,0-3.5,1.4-3.8,3.4c-0.2,1,0.1,2,0.6,2.6
	c0.5,0.6,1.3,0.9,2.1,0.9c1.5,0,2.4-1,2.4-1l-0.1,0.5c0,0.2,0.1,0.3,0.3,0.3h1.5c0.2,0,0.4-0.2,0.5-0.4l0.9-5.8
	C33.6,36.1,33.4,35.9,33.3,35.9z M30.9,39.2c-0.2,1-0.9,1.6-1.9,1.6c-0.5,0-0.9-0.2-1.1-0.5c-0.3-0.3-0.3-0.7-0.3-1.2
	c0.2-1,0.9-1.6,1.9-1.6c0.5,0,0.9,0.2,1.1,0.5C30.9,38.3,31,38.8,30.9,39.2z M40.6,35.9h1.7c0.2,0,0.4,0.3,0.2,0.5l-5.7,8.2
	c-0.1,0.1-0.2,0.2-0.4,0.2h-1.7c-0.2,0-0.4-0.3-0.2-0.5l1.8-2.5l-1.9-5.5c-0.1-0.2,0.1-0.4,0.3-0.4h1.7c0.2,0,0.4,0.1,0.5,0.4l1,3.3
	l2.4-3.5C40.3,36,40.5,35.9,40.6,35.9z"/>
<path class="st2" d="M59.2,42.2l1.5-9.3c0-0.1,0.1-0.3,0.3-0.3h1.6c0.2,0,0.3,0.2,0.3,0.3l-1.4,9.1c0,0.2-0.2,0.4-0.5,0.4h-1.5
	C59.3,42.5,59.1,42.3,59.2,42.2z M48,32.6h-3.6c-0.2,0-0.4,0.2-0.5,0.4l-1.4,9.1c0,0.2,0.1,0.3,0.3,0.3h1.8c0.2,0,0.3-0.1,0.3-0.3
	l0.4-2.6c0-0.2,0.2-0.4,0.5-0.4H47c2.3,0,3.7-1.1,4-3.4c0.2-1,0-1.8-0.5-2.3C50.1,32.9,49.2,32.6,48,32.6z M48.4,36
	c-0.2,1.3-1.2,1.3-2.1,1.3h-0.5l0.4-2.4c0-0.1,0.1-0.3,0.3-0.3h0.2c0.6,0,1.2,0,1.6,0.4C48.4,35.2,48.5,35.5,48.4,36z M58.6,35.9
	h-1.7c-0.1,0-0.3,0.1-0.3,0.3l-0.1,0.5l-0.1-0.2c-0.4-0.5-1.2-0.7-2-0.7c-1.9,0-3.5,1.4-3.8,3.4c-0.2,1,0.1,2,0.6,2.6
	c0.5,0.6,1.3,0.9,2.1,0.9c1.5,0,2.4-1,2.4-1l-0.1,0.5c0,0.2,0.1,0.3,0.3,0.3h1.5c0.2,0,0.4-0.2,0.5-0.4l0.9-5.8
	C58.9,36.1,58.8,35.9,58.6,35.9z M56.2,39.2c-0.2,1-0.9,1.6-1.9,1.6c-0.5,0-0.9-0.2-1.1-0.5c-0.3-0.3-0.3-0.7-0.3-1.2
	c0.2-1,0.9-1.6,1.9-1.6c0.5,0,0.9,0.2,1.1,0.5C56.2,38.3,56.3,38.8,56.2,39.2z"/>
<path class="st3" d="M35.8,29.4l0.4-2.8l-1,0h-4.6l3.2-20.5c0-0.1,0-0.1,0.1-0.2c0,0,0.1-0.1,0.2-0.1h7.8c2.6,0,4.4,0.5,5.3,1.6
	c0.4,0.5,0.7,1,0.9,1.6c0.1,0.6,0.1,1.3,0,2.2l0,0.1v0.6l0.4,0.2c0.4,0.2,0.7,0.4,0.9,0.7c0.4,0.4,0.6,1,0.7,1.6
	c0.1,0.7,0.1,1.5-0.1,2.4c-0.2,1-0.5,1.9-1,2.7c-0.4,0.7-0.9,1.2-1.5,1.7c-0.6,0.4-1.3,0.7-2.1,0.9c-0.8,0.2-1.6,0.3-2.6,0.3h-0.6
	c-0.4,0-0.9,0.2-1.2,0.4c-0.3,0.3-0.6,0.7-0.6,1.1l0,0.3l-0.8,4.9l0,0.2c0,0.1,0,0.1,0,0.1c0,0-0.1,0-0.1,0H35.8z"/>
<path class="st4" d="M49,11.4c0,0.1-0.1,0.3-0.1,0.5c-1,5.3-4.6,7.1-9.1,7.1h-2.3c-0.6,0-1,0.4-1.1,0.9l-1.2,7.5l-0.3,2.1
	c-0.1,0.4,0.2,0.7,0.6,0.7h4.1c0.5,0,0.9-0.4,1-0.8l0-0.2l0.8-4.9l0-0.3c0.1-0.5,0.5-0.8,1-0.8H43c4,0,7-1.6,8-6.2
	c0.4-1.9,0.2-3.6-0.8-4.7C49.8,11.9,49.4,11.6,49,11.4z"/>
<path class="st5" d="M47.9,11c-0.2,0-0.3-0.1-0.5-0.1c-0.2,0-0.3-0.1-0.5-0.1c-0.6-0.1-1.3-0.1-2-0.1h-6.1c-0.2,0-0.3,0-0.4,0.1
	c-0.3,0.1-0.5,0.4-0.5,0.7l-1.3,8.3l0,0.2c0.1-0.5,0.6-0.9,1.1-0.9h2.3c4.5,0,8.1-1.8,9.1-7.1c0-0.2,0.1-0.3,0.1-0.5
	c-0.3-0.1-0.5-0.3-0.9-0.4C48.1,11,48,11,47.9,11z"/>
<path class="st3" d="M37.7,11.4c0.1-0.3,0.3-0.6,0.5-0.7c0.1-0.1,0.3-0.1,0.4-0.1h6.1c0.7,0,1.4,0,2,0.1c0.2,0,0.3,0.1,0.5,0.1
	c0.2,0,0.3,0.1,0.5,0.1c0.1,0,0.2,0,0.2,0.1c0.3,0.1,0.6,0.2,0.9,0.4c0.3-2,0-3.3-1.1-4.5c-1.2-1.3-3.3-1.9-6-1.9h-7.8
	c-0.6,0-1,0.4-1.1,0.9l-3.3,20.7c-0.1,0.4,0.3,0.8,0.7,0.8h4.8l1.2-7.7L37.7,11.4z"/>
</svg>
