<?xml version="1.0" encoding="utf-8"?>
<!-- Generator: Adobe Illustrator 24.0.1, SVG Export Plug-In . SVG Version: 6.00 Build 0)  -->
<svg version="1.1" id="图层_1" xmlns="http://www.w3.org/2000/svg" xmlns:xlink="http://www.w3.org/1999/xlink" x="0px" y="0px"
	 viewBox="0 0 80 50" style="enable-background:new 0 0 80 50;" xml:space="preserve">
<style type="text/css">
	.st0{fill:#FFFFFF;}
	.st1{fill-rule:evenodd;clip-rule:evenodd;fill:#172B85;}
</style>
<path class="st0" d="M0,0h80v50c0,0,0,0,0,0H0c0,0,0,0,0,0V0z"/>
<path class="st1" d="M24.3,33.7h-4.8l-3.6-13.9c-0.2-0.6-0.5-1.2-1.1-1.5c-1.3-0.7-2.8-1.2-4.4-1.5v-0.5h7.8c1.1,0,1.9,0.8,2,1.7
	l1.9,10l4.8-11.7h4.7L24.3,33.7z M34.2,33.7h-4.6l3.8-17.3H38L34.2,33.7z M43.9,21.2c0.1-0.9,0.9-1.5,1.9-1.5
	c1.5-0.1,3.1,0.1,4.4,0.8l0.8-3.7c-1.3-0.5-2.8-0.8-4.2-0.8c-4.4,0-7.7,2.4-7.7,5.7c0,2.5,2.3,3.9,3.9,4.7c1.7,0.8,2.4,1.3,2.3,2.1
	c0,1.2-1.3,1.7-2.7,1.7c-1.6,0-3.2-0.4-4.7-1.1l-0.8,3.7c1.6,0.7,3.4,0.9,5,0.9c5,0.1,8.1-2.3,8.1-5.9
	C50.3,23.5,43.9,23.2,43.9,21.2L43.9,21.2z M66.3,33.7l-3.6-17.3h-3.9c-0.8,0-1.6,0.5-1.9,1.3l-6.7,16h4.7l0.9-2.5h5.8l0.5,2.5H66.3
	z M59.4,21.1l1.3,6.5H57L59.4,21.1z"/>
</svg>
